<!DOCTYPE svg PUBLIC "-//W3C//DTD SVG 1.1//EN" "http://www.w3.org/Graphics/SVG/1.1/DTD/svg11.dtd">
<!-- Uploaded to: SVG Repo, www.svgrepo.com, Transformed by: SVG Repo Mixer Tools -->
<svg width="800px" height="800px" viewBox="0 0 21 21" xmlns="http://www.w3.org/2000/svg" fill="#000000">
<g id="SVGRepo_bgCarrier" stroke-width="0"/>
<g id="SVGRepo_tracerCarrier" stroke-linecap="round" stroke-linejoin="round"/>
<g id="SVGRepo_iconCarrier"> <g fill="none" fill-rule="evenodd" stroke="#ffffff" stroke-linecap="round" stroke-linejoin="round" transform="translate(3 3)"> <path d="m.5 12.5v-10c0-1.1045695.8954305-2 2-2h10c1.1045695 0 2 .8954305 2 2v10c0 1.1045695-.8954305 2-2 2h-10c-1.1045695 0-2-.8954305-2-2z"/> <path d="m12.5 12.5v-10c0-1.1045695-.8954305-2-2-2h2c1 0 2 .8954305 2 2v10c0 1.1045695-1 2-2 2h-2c1.1045695 0 2-.8954305 2-2z" fill="#ffffff"/> <path d="m7.5 10.5 3-3-3-3"/> <path d="m10.5 7.5h-8"/> </g> </g>
</svg>