<svg width="14" height="14" viewBox="0 0 14 14" fill="none" xmlns="http://www.w3.org/2000/svg">
<path d="M13 12.5L13 1.5" stroke="#277DC9" stroke-width="1.5" stroke-linecap="round"/>
<path d="M1.4585 6.85754L8.4585 6.85754" stroke="#277DC9" stroke-width="1.5" stroke-miterlimit="10" stroke-linecap="round"/>
<mask id="path-3-inside-1_6070_7884" fill="white">
<path d="M6.34521 2.45618L9.54494 5.55005C10.3457 6.32437 10.3596 7.60373 9.57574 8.3952L6.45738 11.5439"/>
</mask>
<path d="M7.38789 1.37783C6.79234 0.801978 5.84272 0.817948 5.26687 1.4135C4.69102 2.00906 4.70699 2.95867 5.30254 3.53452L7.38789 1.37783ZM5.3916 10.4884C4.80866 11.077 4.81325 12.0267 5.40186 12.6097C5.99048 13.1926 6.94021 13.188 7.52316 12.5994L5.3916 10.4884ZM9.54494 5.55005L8.50226 6.6284L9.54494 5.55005ZM6.34521 2.45618L5.30254 3.53452L8.50226 6.6284L9.54494 5.55005L10.5876 4.47171L7.38789 1.37783L6.34521 2.45618ZM9.57574 8.3952L8.50997 7.33969L5.3916 10.4884L6.45738 11.5439L7.52316 12.5994L10.6415 9.45072L9.57574 8.3952ZM9.54494 5.55005L8.50226 6.6284C8.70247 6.82198 8.70593 7.14182 8.50997 7.33969L9.57574 8.3952L10.6415 9.45072C12.0133 8.06564 11.989 5.82676 10.5876 4.47171L9.54494 5.55005Z" fill="#277DC9" mask="url(#path-3-inside-1_6070_7884)"/>
</svg>
