<svg width="14" height="14" viewBox="0 0 14 14" fill="none" xmlns="http://www.w3.org/2000/svg">
<path d="M1 1.5L1 12.5" stroke="#277DC9" stroke-width="1.5" stroke-linecap="round"/>
<path d="M12.5415 7.14233L5.5415 7.14233" stroke="#277DC9" stroke-width="1.5" stroke-miterlimit="10" stroke-linecap="round"/>
<mask id="path-3-inside-1_6063_4488" fill="white">
<path d="M7.65479 11.5437L4.45506 8.44983C3.65426 7.67551 3.6404 6.39615 4.42426 5.60467L7.54262 2.456"/>
</mask>
<path d="M6.61211 12.622C7.20766 13.1979 8.15728 13.1819 8.73313 12.5864C9.30898 11.9908 9.29301 11.0412 8.69746 10.4654L6.61211 12.622ZM8.6084 3.51151C9.19134 2.9229 9.18675 1.97316 8.59814 1.39022C8.00952 0.807271 7.05979 0.811865 6.47684 1.40048L8.6084 3.51151ZM4.45506 8.44983L5.49774 7.37148L4.45506 8.44983ZM7.65479 11.5437L8.69746 10.4654L5.49774 7.37148L4.45506 8.44983L3.41239 9.52817L6.61211 12.622L7.65479 11.5437ZM4.42426 5.60467L5.49004 6.66019L8.6084 3.51151L7.54262 2.456L6.47684 1.40048L3.35848 4.54916L4.42426 5.60467ZM4.45506 8.44983L5.49774 7.37148C5.29753 7.1779 5.29407 6.85806 5.49004 6.66019L4.42426 5.60467L3.35848 4.54916C1.98673 5.93424 2.01098 8.17312 3.41239 9.52817L4.45506 8.44983Z" fill="#277DC9" mask="url(#path-3-inside-1_6063_4488)"/>
</svg>
